# xmcd CD database file
#
# Track frame offsets:
#	150
#	13401
#	33344
#	49056
#	64758
#	82395
#	96660
#	114837
#	130849
#	146382
#	161868
#	175798
#	190548
#
# Disc length: 2807 seconds
#
# Revision: 0
# Processed by: cddbd v1.5.2PL0 Copyright (c) Steve Scherf et al.
# Submitted via: CDex 1.51
#
DISCID=b40af50d
DTITLE=Brenster (Brent McAthey) - I Can Go As Far As Mexico
DYEAR=2004
DGENRE=Country
TTITLE0=Here Today Gone Manana
TTITLE1=It Rolls On
TTITLE2=My Own Little Island In The Sun
TTITLE3=I May Go Crazy
TTITLE4=Sure Knew How To Live
TTITLE5=Down In Mexico
TTITLE6=Pleasantly Stoned
TTITLE7=20 Years
TTITLE8=You And The Ocean
TTITLE9=Carry Me
TTITLE10=They Call Her Pacific
TTITLE11=Dream
TTITLE12=I Can Go As Far As Mexico
EXTD=YEAR: 2004
EXTT0=
EXTT1=
EXTT2=
EXTT3=
EXTT4=
EXTT5=
EXTT6=
EXTT7=
EXTT8=
EXTT9=
EXTT10=
EXTT11=
EXTT12=
PLAYORDER=
